<mxfile host="drawio-plugin" modified="2022-12-09T10:20:12.732Z" agent="5.0 (Windows NT 6.2; Win64; x64) AppleWebKit/537.36 (KHTML, like Gecko) Chrome/104.0.5112.102 Safari/537.36" etag="RwI8uGntE17pveqcUML9" version="20.5.3" type="embed"><diagram id="sa6Q3xUmAi24UDrEMSUv" name="Página-1"><mxGraphModel dx="2679" dy="1703" grid="1" gridSize="10" guides="1" tooltips="1" connect="1" arrows="1" fold="1" page="1" pageScale="1" pageWidth="827" pageHeight="1169" math="0" shadow="0"><root><mxCell id="0"/><mxCell id="1" parent="0"/><mxCell id="324" style="edgeStyle=orthogonalEdgeStyle;rounded=0;orthogonalLoop=1;jettySize=auto;html=1;" parent="1" source="321" target="323" edge="1"><mxGeometry relative="1" as="geometry"/></mxCell><mxCell id="321" value="Bob" style="shape=umlActor;verticalLabelPosition=bottom;verticalAlign=top;html=1;outlineConnect=0;" parent="1" vertex="1"><mxGeometry x="-993" y="-310" width="30" height="60" as="geometry"/></mxCell><mxCell id="433" style="edgeStyle=orthogonalEdgeStyle;rounded=0;orthogonalLoop=1;jettySize=auto;html=1;" parent="1" source="323" target="325" edge="1"><mxGeometry relative="1" as="geometry"/></mxCell><mxCell id="323" value="BATTLESHIPS &lt;br&gt;API" style="rounded=0;whiteSpace=wrap;html=1;" parent="1" vertex="1"><mxGeometry x="-813" y="-395" width="120" height="230" as="geometry"/></mxCell><mxCell id="325" value="Home" style="swimlane;fontStyle=0;childLayout=stackLayout;horizontal=1;startSize=30;horizontalStack=0;resizeParent=1;resizeParentMax=0;resizeLast=0;collapsible=1;marginBottom=0;" parent="1" vertex="1"><mxGeometry x="-553" y="-325" width="140" height="90" as="geometry"/></mxCell><mxCell id="418" style="edgeStyle=orthogonalEdgeStyle;rounded=0;orthogonalLoop=1;jettySize=auto;html=1;exitX=1;exitY=0.5;exitDx=0;exitDy=0;" parent="325" source="326" target="327" edge="1"><mxGeometry relative="1" as="geometry"><Array as="points"><mxPoint x="173" y="45"/><mxPoint x="173" y="75"/></Array></mxGeometry></mxCell><mxCell id="326" value="Home" style="text;strokeColor=none;fillColor=none;align=left;verticalAlign=middle;spacingLeft=4;spacingRight=4;overflow=hidden;points=[[0,0.5],[1,0.5]];portConstraint=eastwest;rotatable=0;" parent="325" vertex="1"><mxGeometry y="30" width="140" height="30" as="geometry"/></mxCell><mxCell id="327" value="Server Info" style="text;strokeColor=none;fillColor=none;align=left;verticalAlign=middle;spacingLeft=4;spacingRight=4;overflow=hidden;points=[[0,0.5],[1,0.5]];portConstraint=eastwest;rotatable=0;" parent="325" vertex="1"><mxGeometry y="60" width="140" height="30" as="geometry"/></mxCell><mxCell id="330" value="User" style="swimlane;fontStyle=0;childLayout=stackLayout;horizontal=1;startSize=30;horizontalStack=0;resizeParent=1;resizeParentMax=0;resizeLast=0;collapsible=1;marginBottom=0;" parent="1" vertex="1"><mxGeometry x="-100" y="-420" width="140" height="180" as="geometry"/></mxCell><mxCell id="422" style="edgeStyle=orthogonalEdgeStyle;rounded=0;orthogonalLoop=1;jettySize=auto;html=1;entryX=0.999;entryY=0.327;entryDx=0;entryDy=0;exitX=1;exitY=0.5;exitDx=0;exitDy=0;entryPerimeter=0;" parent="330" source="331" target="332" edge="1"><mxGeometry relative="1" as="geometry"><Array as="points"><mxPoint x="220" y="45"/><mxPoint x="220" y="70"/><mxPoint x="140" y="70"/></Array></mxGeometry></mxCell><mxCell id="331" value="Create User" style="text;strokeColor=none;fillColor=none;align=left;verticalAlign=middle;spacingLeft=4;spacingRight=4;overflow=hidden;points=[[0,0.5],[1,0.5]];portConstraint=eastwest;rotatable=0;" parent="330" vertex="1"><mxGeometry y="30" width="140" height="30" as="geometry"/></mxCell><mxCell id="423" style="edgeStyle=orthogonalEdgeStyle;rounded=0;orthogonalLoop=1;jettySize=auto;html=1;exitX=1;exitY=0.5;exitDx=0;exitDy=0;" parent="330" source="332" target="333" edge="1"><mxGeometry relative="1" as="geometry"><Array as="points"><mxPoint x="160" y="75"/><mxPoint x="160" y="100"/></Array></mxGeometry></mxCell><mxCell id="332" value="Create Token" style="text;strokeColor=none;fillColor=none;align=left;verticalAlign=middle;spacingLeft=4;spacingRight=4;overflow=hidden;points=[[0,0.5],[1,0.5]];portConstraint=eastwest;rotatable=0;" parent="330" vertex="1"><mxGeometry y="60" width="140" height="30" as="geometry"/></mxCell><mxCell id="333" value="User Home" style="text;strokeColor=none;fillColor=none;align=left;verticalAlign=middle;spacingLeft=4;spacingRight=4;overflow=hidden;points=[[0,0.5],[1,0.5]];portConstraint=eastwest;rotatable=0;glass=0;" parent="330" vertex="1"><mxGeometry y="90" width="140" height="30" as="geometry"/></mxCell><mxCell id="334" value="Delete User" style="text;strokeColor=none;fillColor=none;align=left;verticalAlign=middle;spacingLeft=4;spacingRight=4;overflow=hidden;points=[[0,0.5],[1,0.5]];portConstraint=eastwest;rotatable=0;" parent="330" vertex="1"><mxGeometry y="120" width="140" height="30" as="geometry"/></mxCell><mxCell id="335" value="Get Users Stats" style="text;strokeColor=none;fillColor=none;align=left;verticalAlign=middle;spacingLeft=4;spacingRight=4;overflow=hidden;points=[[0,0.5],[1,0.5]];portConstraint=eastwest;rotatable=0;" parent="330" vertex="1"><mxGeometry y="150" width="140" height="30" as="geometry"/></mxCell><mxCell id="337" value="Games" style="swimlane;fontStyle=0;childLayout=stackLayout;horizontal=1;startSize=30;horizontalStack=0;resizeParent=1;resizeParentMax=0;resizeLast=0;collapsible=1;marginBottom=0;" parent="1" vertex="1"><mxGeometry x="320" y="-405" width="140" height="330" as="geometry"/></mxCell><mxCell id="429" style="edgeStyle=orthogonalEdgeStyle;rounded=0;orthogonalLoop=1;jettySize=auto;html=1;exitX=1;exitY=0.5;exitDx=0;exitDy=0;dashed=1;" parent="337" source="338" target="339" edge="1"><mxGeometry relative="1" as="geometry"><Array as="points"><mxPoint x="240" y="45"/><mxPoint x="240" y="65"/></Array></mxGeometry></mxCell><mxCell id="432" style="edgeStyle=orthogonalEdgeStyle;rounded=0;orthogonalLoop=1;jettySize=auto;html=1;entryX=1;entryY=0.5;entryDx=0;entryDy=0;dashed=1;" parent="337" target="366" edge="1"><mxGeometry relative="1" as="geometry"><mxPoint x="240" y="45" as="sourcePoint"/><Array as="points"><mxPoint x="240" y="285"/></Array></mxGeometry></mxCell><mxCell id="338" value="Create Game" style="text;strokeColor=none;fillColor=none;align=left;verticalAlign=middle;spacingLeft=4;spacingRight=4;overflow=hidden;points=[[0,0.5],[1,0.5]];portConstraint=eastwest;rotatable=0;" parent="337" vertex="1"><mxGeometry y="30" width="140" height="30" as="geometry"/></mxCell><mxCell id="428" style="edgeStyle=orthogonalEdgeStyle;rounded=0;orthogonalLoop=1;jettySize=auto;html=1;exitX=1;exitY=0.5;exitDx=0;exitDy=0;" parent="337" source="339" target="366" edge="1"><mxGeometry relative="1" as="geometry"><Array as="points"><mxPoint x="140" y="85"/><mxPoint x="200" y="85"/><mxPoint x="200" y="285"/></Array></mxGeometry></mxCell><mxCell id="339" value="Get Current Game Id" style="text;strokeColor=none;fillColor=none;align=left;verticalAlign=middle;spacingLeft=4;spacingRight=4;overflow=hidden;points=[[0,0.5],[1,0.5]];portConstraint=eastwest;rotatable=0;" parent="337" vertex="1"><mxGeometry y="60" width="140" height="30" as="geometry"/></mxCell><mxCell id="340" value="Place Ships" style="text;strokeColor=none;fillColor=none;align=left;verticalAlign=middle;spacingLeft=4;spacingRight=4;overflow=hidden;points=[[0,0.5],[1,0.5]];portConstraint=eastwest;rotatable=0;" parent="337" vertex="1"><mxGeometry y="90" width="140" height="30" as="geometry"/></mxCell><mxCell id="346" value="Update Ship" style="text;strokeColor=none;fillColor=none;align=left;verticalAlign=middle;spacingLeft=4;spacingRight=4;overflow=hidden;points=[[0,0.5],[1,0.5]];portConstraint=eastwest;rotatable=0;" parent="337" vertex="1"><mxGeometry y="120" width="140" height="30" as="geometry"/></mxCell><mxCell id="344" value="Confirm Layout" style="text;strokeColor=none;fillColor=none;align=left;verticalAlign=middle;spacingLeft=4;spacingRight=4;overflow=hidden;points=[[0,0.5],[1,0.5]];portConstraint=eastwest;rotatable=0;" parent="337" vertex="1"><mxGeometry y="150" width="140" height="30" as="geometry"/></mxCell><mxCell id="345" value="Place Shot" style="text;strokeColor=none;fillColor=none;align=left;verticalAlign=middle;spacingLeft=4;spacingRight=4;overflow=hidden;points=[[0,0.5],[1,0.5]];portConstraint=eastwest;rotatable=0;" parent="337" vertex="1"><mxGeometry y="180" width="140" height="30" as="geometry"/></mxCell><mxCell id="355" value="Get My Board" style="text;strokeColor=none;fillColor=none;align=left;verticalAlign=middle;spacingLeft=4;spacingRight=4;overflow=hidden;points=[[0,0.5],[1,0.5]];portConstraint=eastwest;rotatable=0;" parent="337" vertex="1"><mxGeometry y="210" width="140" height="30" as="geometry"/></mxCell><mxCell id="365" value="Get Oponnet Board" style="text;strokeColor=none;fillColor=none;align=left;verticalAlign=middle;spacingLeft=4;spacingRight=4;overflow=hidden;points=[[0,0.5],[1,0.5]];portConstraint=eastwest;rotatable=0;" parent="337" vertex="1"><mxGeometry y="240" width="140" height="30" as="geometry"/></mxCell><mxCell id="394" style="edgeStyle=orthogonalEdgeStyle;rounded=0;orthogonalLoop=1;jettySize=auto;html=1;entryX=0;entryY=0.5;entryDx=0;entryDy=0;" parent="337" source="366" target="340" edge="1"><mxGeometry relative="1" as="geometry"/></mxCell><mxCell id="395" style="edgeStyle=orthogonalEdgeStyle;rounded=0;orthogonalLoop=1;jettySize=auto;html=1;entryX=0.002;entryY=0.706;entryDx=0;entryDy=0;entryPerimeter=0;" parent="337" source="366" target="346" edge="1"><mxGeometry relative="1" as="geometry"/></mxCell><mxCell id="397" style="edgeStyle=orthogonalEdgeStyle;rounded=0;orthogonalLoop=1;jettySize=auto;html=1;entryX=0;entryY=0.5;entryDx=0;entryDy=0;" parent="337" source="366" target="344" edge="1"><mxGeometry relative="1" as="geometry"/></mxCell><mxCell id="398" style="edgeStyle=orthogonalEdgeStyle;rounded=0;orthogonalLoop=1;jettySize=auto;html=1;entryX=0;entryY=0.5;entryDx=0;entryDy=0;" parent="337" source="366" target="345" edge="1"><mxGeometry relative="1" as="geometry"/></mxCell><mxCell id="366" value="Get Game" style="text;strokeColor=none;fillColor=none;align=left;verticalAlign=middle;spacingLeft=4;spacingRight=4;overflow=hidden;points=[[0,0.5],[1,0.5]];portConstraint=eastwest;rotatable=0;" parent="337" vertex="1"><mxGeometry y="270" width="140" height="30" as="geometry"/></mxCell><mxCell id="378" value="Get Game State" style="text;strokeColor=none;fillColor=none;align=left;verticalAlign=middle;spacingLeft=4;spacingRight=4;overflow=hidden;points=[[0,0.5],[1,0.5]];portConstraint=eastwest;rotatable=0;" parent="337" vertex="1"><mxGeometry y="300" width="140" height="30" as="geometry"/></mxCell><mxCell id="401" style="edgeStyle=orthogonalEdgeStyle;rounded=0;orthogonalLoop=1;jettySize=auto;html=1;" parent="1" source="326" target="331" edge="1"><mxGeometry relative="1" as="geometry"><Array as="points"><mxPoint x="-180" y="-280"/><mxPoint x="-180" y="-375"/></Array></mxGeometry></mxCell><mxCell id="409" style="edgeStyle=orthogonalEdgeStyle;rounded=0;orthogonalLoop=1;jettySize=auto;html=1;entryX=0;entryY=0.63;entryDx=0;entryDy=0;entryPerimeter=0;" parent="1" source="406" target="323" edge="1"><mxGeometry relative="1" as="geometry"/></mxCell><mxCell id="406" value="Alice" style="shape=umlActor;verticalLabelPosition=bottom;verticalAlign=top;html=1;outlineConnect=0;" parent="1" vertex="1"><mxGeometry x="-993" y="-190" width="30" height="60" as="geometry"/></mxCell><mxCell id="417" style="edgeStyle=orthogonalEdgeStyle;rounded=0;orthogonalLoop=1;jettySize=auto;html=1;" parent="1" source="326" target="335" edge="1"><mxGeometry relative="1" as="geometry"/></mxCell><mxCell id="419" style="edgeStyle=orthogonalEdgeStyle;rounded=0;orthogonalLoop=1;jettySize=auto;html=1;" parent="1" source="326" target="332" edge="1"><mxGeometry relative="1" as="geometry"><Array as="points"><mxPoint x="-180" y="-280"/><mxPoint x="-180" y="-340"/></Array></mxGeometry></mxCell><mxCell id="424" style="edgeStyle=orthogonalEdgeStyle;rounded=0;orthogonalLoop=1;jettySize=auto;html=1;exitX=1;exitY=0.5;exitDx=0;exitDy=0;" parent="1" source="332" target="338" edge="1"><mxGeometry relative="1" as="geometry"><Array as="points"><mxPoint x="60" y="-345"/><mxPoint x="60" y="-330"/><mxPoint x="180" y="-330"/><mxPoint x="180" y="-365"/></Array></mxGeometry></mxCell><mxCell id="425" style="edgeStyle=orthogonalEdgeStyle;rounded=0;orthogonalLoop=1;jettySize=auto;html=1;" parent="1" target="339" edge="1"><mxGeometry relative="1" as="geometry"><mxPoint x="180" y="-330" as="sourcePoint"/></mxGeometry></mxCell><mxCell id="426" style="edgeStyle=orthogonalEdgeStyle;rounded=0;orthogonalLoop=1;jettySize=auto;html=1;" parent="1" source="326" target="333" edge="1"><mxGeometry relative="1" as="geometry"><Array as="points"><mxPoint x="-180" y="-280"/><mxPoint x="-180" y="-315"/></Array></mxGeometry></mxCell><mxCell id="427" style="edgeStyle=orthogonalEdgeStyle;rounded=0;orthogonalLoop=1;jettySize=auto;html=1;entryX=0;entryY=0.5;entryDx=0;entryDy=0;" parent="1" source="333" target="339" edge="1"><mxGeometry relative="1" as="geometry"><Array as="points"><mxPoint x="140" y="-315"/><mxPoint x="140" y="-330"/></Array></mxGeometry></mxCell></root></mxGraphModel></diagram></mxfile>